<?xml version="1.0" encoding="UTF-8"?>
<svg xmlns="http://www.w3.org/2000/svg"
     version="1.1"
     width="1860"
     height="2414"
     viewBox="0 0 1860 2414"
     preserveAspectRatio="xMidYMid meet">
  <title>Dotted</title>
  <desc>White notebook page with an evenly spaced light gray dot grid.</desc>
  <rect x="0" y="0" width="1860" height="2414" fill="#ffffff"/>
  <g fill="#b5b5b5">
    <circle cx="32" cy="32" r="2.4"/>
    <circle cx="96" cy="32" r="2.4"/>
    <circle cx="160" cy="32" r="2.4"/>
    <circle cx="224" cy="32" r="2.4"/>
    <circle cx="288" cy="32" r="2.4"/>
    <circle cx="352" cy="32" r="2.4"/>
    <circle cx="416" cy="32" r="2.4"/>
    <circle cx="480" cy="32" r="2.4"/>
    <circle cx="544" cy="32" r="2.4"/>
    <circle cx="608" cy="32" r="2.4"/>
    <circle cx="672" cy="32" r="2.4"/>
    <circle cx="736" cy="32" r="2.4"/>
    <circle cx="800" cy="32" r="2.4"/>
    <circle cx="864" cy="32" r="2.4"/>
    <circle cx="928" cy="32" r="2.4"/>
    <circle cx="992" cy="32" r="2.4"/>
    <circle cx="1056" cy="32" r="2.4"/>
    <circle cx="1120" cy="32" r="2.4"/>
    <circle cx="1184" cy="32" r="2.4"/>
    <circle cx="1248" cy="32" r="2.4"/>
    <circle cx="1312" cy="32" r="2.4"/>
    <circle cx="1376" cy="32" r="2.4"/>
    <circle cx="1440" cy="32" r="2.4"/>
    <circle cx="1504" cy="32" r="2.4"/>
    <circle cx="1568" cy="32" r="2.4"/>
    <circle cx="1632" cy="32" r="2.4"/>
    <circle cx="1696" cy="32" r="2.4"/>
    <circle cx="1760" cy="32" r="2.4"/>
    <circle cx="1824" cy="32" r="2.4"/>
    <circle cx="32" cy="96" r="2.4"/>
    <circle cx="96" cy="96" r="2.4"/>
    <circle cx="160" cy="96" r="2.4"/>
    <circle cx="224" cy="96" r="2.4"/>
    <circle cx="288" cy="96" r="2.4"/>
    <circle cx="352" cy="96" r="2.4"/>
    <circle cx="416" cy="96" r="2.4"/>
    <circle cx="480" cy="96" r="2.4"/>
    <circle cx="544" cy="96" r="2.4"/>
    <circle cx="608" cy="96" r="2.4"/>
    <circle cx="672" cy="96" r="2.4"/>
    <circle cx="736" cy="96" r="2.4"/>
    <circle cx="800" cy="96" r="2.4"/>
    <circle cx="864" cy="96" r="2.4"/>
    <circle cx="928" cy="96" r="2.4"/>
    <circle cx="992" cy="96" r="2.4"/>
    <circle cx="1056" cy="96" r="2.4"/>
    <circle cx="1120" cy="96" r="2.4"/>
    <circle cx="1184" cy="96" r="2.4"/>
    <circle cx="1248" cy="96" r="2.4"/>
    <circle cx="1312" cy="96" r="2.4"/>
    <circle cx="1376" cy="96" r="2.4"/>
    <circle cx="1440" cy="96" r="2.4"/>
    <circle cx="1504" cy="96" r="2.4"/>
    <circle cx="1568" cy="96" r="2.4"/>
    <circle cx="1632" cy="96" r="2.4"/>
    <circle cx="1696" cy="96" r="2.4"/>
    <circle cx="1760" cy="96" r="2.4"/>
    <circle cx="1824" cy="96" r="2.4"/>
    <circle cx="32" cy="160" r="2.4"/>
    <circle cx="96" cy="160" r="2.4"/>
    <circle cx="160" cy="160" r="2.4"/>
    <circle cx="224" cy="160" r="2.4"/>
    <circle cx="288" cy="160" r="2.4"/>
    <circle cx="352" cy="160" r="2.4"/>
    <circle cx="416" cy="160" r="2.4"/>
    <circle cx="480" cy="160" r="2.4"/>
    <circle cx="544" cy="160" r="2.4"/>
    <circle cx="608" cy="160" r="2.4"/>
    <circle cx="672" cy="160" r="2.4"/>
    <circle cx="736" cy="160" r="2.4"/>
    <circle cx="800" cy="160" r="2.4"/>
    <circle cx="864" cy="160" r="2.4"/>
    <circle cx="928" cy="160" r="2.4"/>
    <circle cx="992" cy="160" r="2.4"/>
    <circle cx="1056" cy="160" r="2.4"/>
    <circle cx="1120" cy="160" r="2.4"/>
    <circle cx="1184" cy="160" r="2.4"/>
    <circle cx="1248" cy="160" r="2.4"/>
    <circle cx="1312" cy="160" r="2.4"/>
    <circle cx="1376" cy="160" r="2.4"/>
    <circle cx="1440" cy="160" r="2.4"/>
    <circle cx="1504" cy="160" r="2.4"/>
    <circle cx="1568" cy="160" r="2.4"/>
    <circle cx="1632" cy="160" r="2.4"/>
    <circle cx="1696" cy="160" r="2.4"/>
    <circle cx="1760" cy="160" r="2.4"/>
    <circle cx="1824" cy="160" r="2.4"/>
    <circle cx="32" cy="224" r="2.4"/>
    <circle cx="96" cy="224" r="2.4"/>
    <circle cx="160" cy="224" r="2.4"/>
    <circle cx="224" cy="224" r="2.4"/>
    <circle cx="288" cy="224" r="2.4"/>
    <circle cx="352" cy="224" r="2.4"/>
    <circle cx="416" cy="224" r="2.4"/>
    <circle cx="480" cy="224" r="2.4"/>
    <circle cx="544" cy="224" r="2.4"/>
    <circle cx="608" cy="224" r="2.4"/>
    <circle cx="672" cy="224" r="2.4"/>
    <circle cx="736" cy="224" r="2.4"/>
    <circle cx="800" cy="224" r="2.4"/>
    <circle cx="864" cy="224" r="2.4"/>
    <circle cx="928" cy="224" r="2.4"/>
    <circle cx="992" cy="224" r="2.4"/>
    <circle cx="1056" cy="224" r="2.4"/>
    <circle cx="1120" cy="224" r="2.4"/>
    <circle cx="1184" cy="224" r="2.4"/>
    <circle cx="1248" cy="224" r="2.4"/>
    <circle cx="1312" cy="224" r="2.4"/>
    <circle cx="1376" cy="224" r="2.4"/>
    <circle cx="1440" cy="224" r="2.4"/>
    <circle cx="1504" cy="224" r="2.4"/>
    <circle cx="1568" cy="224" r="2.4"/>
    <circle cx="1632" cy="224" r="2.4"/>
    <circle cx="1696" cy="224" r="2.4"/>
    <circle cx="1760" cy="224" r="2.4"/>
    <circle cx="1824" cy="224" r="2.4"/>
    <circle cx="32" cy="288" r="2.4"/>
    <circle cx="96" cy="288" r="2.4"/>
    <circle cx="160" cy="288" r="2.4"/>
    <circle cx="224" cy="288" r="2.4"/>
    <circle cx="288" cy="288" r="2.4"/>
    <circle cx="352" cy="288" r="2.4"/>
    <circle cx="416" cy="288" r="2.4"/>
    <circle cx="480" cy="288" r="2.4"/>
    <circle cx="544" cy="288" r="2.4"/>
    <circle cx="608" cy="288" r="2.4"/>
    <circle cx="672" cy="288" r="2.4"/>
    <circle cx="736" cy="288" r="2.4"/>
    <circle cx="800" cy="288" r="2.4"/>
    <circle cx="864" cy="288" r="2.4"/>
    <circle cx="928" cy="288" r="2.4"/>
    <circle cx="992" cy="288" r="2.4"/>
    <circle cx="1056" cy="288" r="2.4"/>
    <circle cx="1120" cy="288" r="2.4"/>
    <circle cx="1184" cy="288" r="2.4"/>
    <circle cx="1248" cy="288" r="2.4"/>
    <circle cx="1312" cy="288" r="2.4"/>
    <circle cx="1376" cy="288" r="2.4"/>
    <circle cx="1440" cy="288" r="2.4"/>
    <circle cx="1504" cy="288" r="2.4"/>
    <circle cx="1568" cy="288" r="2.4"/>
    <circle cx="1632" cy="288" r="2.4"/>
    <circle cx="1696" cy="288" r="2.4"/>
    <circle cx="1760" cy="288" r="2.4"/>
    <circle cx="1824" cy="288" r="2.4"/>
    <circle cx="32" cy="352" r="2.4"/>
    <circle cx="96" cy="352" r="2.4"/>
    <circle cx="160" cy="352" r="2.4"/>
    <circle cx="224" cy="352" r="2.4"/>
    <circle cx="288" cy="352" r="2.4"/>
    <circle cx="352" cy="352" r="2.4"/>
    <circle cx="416" cy="352" r="2.4"/>
    <circle cx="480" cy="352" r="2.4"/>
    <circle cx="544" cy="352" r="2.4"/>
    <circle cx="608" cy="352" r="2.4"/>
    <circle cx="672" cy="352" r="2.4"/>
    <circle cx="736" cy="352" r="2.4"/>
    <circle cx="800" cy="352" r="2.4"/>
    <circle cx="864" cy="352" r="2.4"/>
    <circle cx="928" cy="352" r="2.4"/>
    <circle cx="992" cy="352" r="2.4"/>
    <circle cx="1056" cy="352" r="2.4"/>
    <circle cx="1120" cy="352" r="2.4"/>
    <circle cx="1184" cy="352" r="2.4"/>
    <circle cx="1248" cy="352" r="2.4"/>
    <circle cx="1312" cy="352" r="2.4"/>
    <circle cx="1376" cy="352" r="2.4"/>
    <circle cx="1440" cy="352" r="2.4"/>
    <circle cx="1504" cy="352" r="2.4"/>
    <circle cx="1568" cy="352" r="2.4"/>
    <circle cx="1632" cy="352" r="2.4"/>
    <circle cx="1696" cy="352" r="2.4"/>
    <circle cx="1760" cy="352" r="2.4"/>
    <circle cx="1824" cy="352" r="2.4"/>
    <circle cx="32" cy="416" r="2.4"/>
    <circle cx="96" cy="416" r="2.4"/>
    <circle cx="160" cy="416" r="2.4"/>
    <circle cx="224" cy="416" r="2.4"/>
    <circle cx="288" cy="416" r="2.4"/>
    <circle cx="352" cy="416" r="2.4"/>
    <circle cx="416" cy="416" r="2.4"/>
    <circle cx="480" cy="416" r="2.4"/>
    <circle cx="544" cy="416" r="2.4"/>
    <circle cx="608" cy="416" r="2.4"/>
    <circle cx="672" cy="416" r="2.4"/>
    <circle cx="736" cy="416" r="2.4"/>
    <circle cx="800" cy="416" r="2.4"/>
    <circle cx="864" cy="416" r="2.4"/>
    <circle cx="928" cy="416" r="2.4"/>
    <circle cx="992" cy="416" r="2.4"/>
    <circle cx="1056" cy="416" r="2.4"/>
    <circle cx="1120" cy="416" r="2.4"/>
    <circle cx="1184" cy="416" r="2.4"/>
    <circle cx="1248" cy="416" r="2.4"/>
    <circle cx="1312" cy="416" r="2.4"/>
    <circle cx="1376" cy="416" r="2.4"/>
    <circle cx="1440" cy="416" r="2.4"/>
    <circle cx="1504" cy="416" r="2.4"/>
    <circle cx="1568" cy="416" r="2.4"/>
    <circle cx="1632" cy="416" r="2.4"/>
    <circle cx="1696" cy="416" r="2.4"/>
    <circle cx="1760" cy="416" r="2.4"/>
    <circle cx="1824" cy="416" r="2.4"/>
    <circle cx="32" cy="480" r="2.4"/>
    <circle cx="96" cy="480" r="2.4"/>
    <circle cx="160" cy="480" r="2.4"/>
    <circle cx="224" cy="480" r="2.4"/>
    <circle cx="288" cy="480" r="2.4"/>
    <circle cx="352" cy="480" r="2.4"/>
    <circle cx="416" cy="480" r="2.4"/>
    <circle cx="480" cy="480" r="2.4"/>
    <circle cx="544" cy="480" r="2.4"/>
    <circle cx="608" cy="480" r="2.4"/>
    <circle cx="672" cy="480" r="2.4"/>
    <circle cx="736" cy="480" r="2.4"/>
    <circle cx="800" cy="480" r="2.4"/>
    <circle cx="864" cy="480" r="2.4"/>
    <circle cx="928" cy="480" r="2.4"/>
    <circle cx="992" cy="480" r="2.4"/>
    <circle cx="1056" cy="480" r="2.4"/>
    <circle cx="1120" cy="480" r="2.4"/>
    <circle cx="1184" cy="480" r="2.4"/>
    <circle cx="1248" cy="480" r="2.4"/>
    <circle cx="1312" cy="480" r="2.4"/>
    <circle cx="1376" cy="480" r="2.4"/>
    <circle cx="1440" cy="480" r="2.4"/>
    <circle cx="1504" cy="480" r="2.4"/>
    <circle cx="1568" cy="480" r="2.4"/>
    <circle cx="1632" cy="480" r="2.4"/>
    <circle cx="1696" cy="480" r="2.4"/>
    <circle cx="1760" cy="480" r="2.4"/>
    <circle cx="1824" cy="480" r="2.4"/>
    <circle cx="32" cy="544" r="2.4"/>
    <circle cx="96" cy="544" r="2.4"/>
    <circle cx="160" cy="544" r="2.4"/>
    <circle cx="224" cy="544" r="2.4"/>
    <circle cx="288" cy="544" r="2.4"/>
    <circle cx="352" cy="544" r="2.4"/>
    <circle cx="416" cy="544" r="2.4"/>
    <circle cx="480" cy="544" r="2.4"/>
    <circle cx="544" cy="544" r="2.4"/>
    <circle cx="608" cy="544" r="2.4"/>
    <circle cx="672" cy="544" r="2.4"/>
    <circle cx="736" cy="544" r="2.4"/>
    <circle cx="800" cy="544" r="2.4"/>
    <circle cx="864" cy="544" r="2.4"/>
    <circle cx="928" cy="544" r="2.4"/>
    <circle cx="992" cy="544" r="2.4"/>
    <circle cx="1056" cy="544" r="2.4"/>
    <circle cx="1120" cy="544" r="2.4"/>
    <circle cx="1184" cy="544" r="2.4"/>
    <circle cx="1248" cy="544" r="2.4"/>
    <circle cx="1312" cy="544" r="2.4"/>
    <circle cx="1376" cy="544" r="2.4"/>
    <circle cx="1440" cy="544" r="2.4"/>
    <circle cx="1504" cy="544" r="2.4"/>
    <circle cx="1568" cy="544" r="2.4"/>
    <circle cx="1632" cy="544" r="2.4"/>
    <circle cx="1696" cy="544" r="2.4"/>
    <circle cx="1760" cy="544" r="2.4"/>
    <circle cx="1824" cy="544" r="2.4"/>
    <circle cx="32" cy="608" r="2.4"/>
    <circle cx="96" cy="608" r="2.4"/>
    <circle cx="160" cy="608" r="2.4"/>
    <circle cx="224" cy="608" r="2.4"/>
    <circle cx="288" cy="608" r="2.4"/>
    <circle cx="352" cy="608" r="2.4"/>
    <circle cx="416" cy="608" r="2.4"/>
    <circle cx="480" cy="608" r="2.4"/>
    <circle cx="544" cy="608" r="2.4"/>
    <circle cx="608" cy="608" r="2.4"/>
    <circle cx="672" cy="608" r="2.4"/>
    <circle cx="736" cy="608" r="2.4"/>
    <circle cx="800" cy="608" r="2.4"/>
    <circle cx="864" cy="608" r="2.4"/>
    <circle cx="928" cy="608" r="2.4"/>
    <circle cx="992" cy="608" r="2.4"/>
    <circle cx="1056" cy="608" r="2.4"/>
    <circle cx="1120" cy="608" r="2.4"/>
    <circle cx="1184" cy="608" r="2.4"/>
    <circle cx="1248" cy="608" r="2.4"/>
    <circle cx="1312" cy="608" r="2.4"/>
    <circle cx="1376" cy="608" r="2.4"/>
    <circle cx="1440" cy="608" r="2.4"/>
    <circle cx="1504" cy="608" r="2.4"/>
    <circle cx="1568" cy="608" r="2.4"/>
    <circle cx="1632" cy="608" r="2.4"/>
    <circle cx="1696" cy="608" r="2.4"/>
    <circle cx="1760" cy="608" r="2.4"/>
    <circle cx="1824" cy="608" r="2.4"/>
    <circle cx="32" cy="672" r="2.4"/>
    <circle cx="96" cy="672" r="2.4"/>
    <circle cx="160" cy="672" r="2.4"/>
    <circle cx="224" cy="672" r="2.4"/>
    <circle cx="288" cy="672" r="2.4"/>
    <circle cx="352" cy="672" r="2.4"/>
    <circle cx="416" cy="672" r="2.4"/>
    <circle cx="480" cy="672" r="2.4"/>
    <circle cx="544" cy="672" r="2.4"/>
    <circle cx="608" cy="672" r="2.4"/>
    <circle cx="672" cy="672" r="2.4"/>
    <circle cx="736" cy="672" r="2.4"/>
    <circle cx="800" cy="672" r="2.4"/>
    <circle cx="864" cy="672" r="2.4"/>
    <circle cx="928" cy="672" r="2.4"/>
    <circle cx="992" cy="672" r="2.4"/>
    <circle cx="1056" cy="672" r="2.4"/>
    <circle cx="1120" cy="672" r="2.4"/>
    <circle cx="1184" cy="672" r="2.4"/>
    <circle cx="1248" cy="672" r="2.4"/>
    <circle cx="1312" cy="672" r="2.4"/>
    <circle cx="1376" cy="672" r="2.4"/>
    <circle cx="1440" cy="672" r="2.4"/>
    <circle cx="1504" cy="672" r="2.4"/>
    <circle cx="1568" cy="672" r="2.4"/>
    <circle cx="1632" cy="672" r="2.4"/>
    <circle cx="1696" cy="672" r="2.4"/>
    <circle cx="1760" cy="672" r="2.4"/>
    <circle cx="1824" cy="672" r="2.4"/>
    <circle cx="32" cy="736" r="2.4"/>
    <circle cx="96" cy="736" r="2.4"/>
    <circle cx="160" cy="736" r="2.4"/>
    <circle cx="224" cy="736" r="2.4"/>
    <circle cx="288" cy="736" r="2.4"/>
    <circle cx="352" cy="736" r="2.4"/>
    <circle cx="416" cy="736" r="2.4"/>
    <circle cx="480" cy="736" r="2.4"/>
    <circle cx="544" cy="736" r="2.4"/>
    <circle cx="608" cy="736" r="2.4"/>
    <circle cx="672" cy="736" r="2.4"/>
    <circle cx="736" cy="736" r="2.4"/>
    <circle cx="800" cy="736" r="2.4"/>
    <circle cx="864" cy="736" r="2.4"/>
    <circle cx="928" cy="736" r="2.4"/>
    <circle cx="992" cy="736" r="2.4"/>
    <circle cx="1056" cy="736" r="2.4"/>
    <circle cx="1120" cy="736" r="2.4"/>
    <circle cx="1184" cy="736" r="2.4"/>
    <circle cx="1248" cy="736" r="2.4"/>
    <circle cx="1312" cy="736" r="2.4"/>
    <circle cx="1376" cy="736" r="2.4"/>
    <circle cx="1440" cy="736" r="2.4"/>
    <circle cx="1504" cy="736" r="2.4"/>
    <circle cx="1568" cy="736" r="2.4"/>
    <circle cx="1632" cy="736" r="2.4"/>
    <circle cx="1696" cy="736" r="2.4"/>
    <circle cx="1760" cy="736" r="2.4"/>
    <circle cx="1824" cy="736" r="2.4"/>
    <circle cx="32" cy="800" r="2.4"/>
    <circle cx="96" cy="800" r="2.4"/>
    <circle cx="160" cy="800" r="2.4"/>
    <circle cx="224" cy="800" r="2.4"/>
    <circle cx="288" cy="800" r="2.4"/>
    <circle cx="352" cy="800" r="2.4"/>
    <circle cx="416" cy="800" r="2.4"/>
    <circle cx="480" cy="800" r="2.4"/>
    <circle cx="544" cy="800" r="2.4"/>
    <circle cx="608" cy="800" r="2.4"/>
    <circle cx="672" cy="800" r="2.4"/>
    <circle cx="736" cy="800" r="2.4"/>
    <circle cx="800" cy="800" r="2.4"/>
    <circle cx="864" cy="800" r="2.4"/>
    <circle cx="928" cy="800" r="2.4"/>
    <circle cx="992" cy="800" r="2.4"/>
    <circle cx="1056" cy="800" r="2.4"/>
    <circle cx="1120" cy="800" r="2.4"/>
    <circle cx="1184" cy="800" r="2.4"/>
    <circle cx="1248" cy="800" r="2.4"/>
    <circle cx="1312" cy="800" r="2.4"/>
    <circle cx="1376" cy="800" r="2.4"/>
    <circle cx="1440" cy="800" r="2.4"/>
    <circle cx="1504" cy="800" r="2.4"/>
    <circle cx="1568" cy="800" r="2.4"/>
    <circle cx="1632" cy="800" r="2.4"/>
    <circle cx="1696" cy="800" r="2.4"/>
    <circle cx="1760" cy="800" r="2.4"/>
    <circle cx="1824" cy="800" r="2.4"/>
    <circle cx="32" cy="864" r="2.4"/>
    <circle cx="96" cy="864" r="2.4"/>
    <circle cx="160" cy="864" r="2.4"/>
    <circle cx="224" cy="864" r="2.4"/>
    <circle cx="288" cy="864" r="2.4"/>
    <circle cx="352" cy="864" r="2.4"/>
    <circle cx="416" cy="864" r="2.4"/>
    <circle cx="480" cy="864" r="2.4"/>
    <circle cx="544" cy="864" r="2.4"/>
    <circle cx="608" cy="864" r="2.4"/>
    <circle cx="672" cy="864" r="2.4"/>
    <circle cx="736" cy="864" r="2.4"/>
    <circle cx="800" cy="864" r="2.4"/>
    <circle cx="864" cy="864" r="2.4"/>
    <circle cx="928" cy="864" r="2.4"/>
    <circle cx="992" cy="864" r="2.4"/>
    <circle cx="1056" cy="864" r="2.4"/>
    <circle cx="1120" cy="864" r="2.4"/>
    <circle cx="1184" cy="864" r="2.4"/>
    <circle cx="1248" cy="864" r="2.4"/>
    <circle cx="1312" cy="864" r="2.4"/>
    <circle cx="1376" cy="864" r="2.4"/>
    <circle cx="1440" cy="864" r="2.4"/>
    <circle cx="1504" cy="864" r="2.4"/>
    <circle cx="1568" cy="864" r="2.4"/>
    <circle cx="1632" cy="864" r="2.4"/>
    <circle cx="1696" cy="864" r="2.4"/>
    <circle cx="1760" cy="864" r="2.4"/>
    <circle cx="1824" cy="864" r="2.4"/>
    <circle cx="32" cy="928" r="2.4"/>
    <circle cx="96" cy="928" r="2.4"/>
    <circle cx="160" cy="928" r="2.4"/>
    <circle cx="224" cy="928" r="2.4"/>
    <circle cx="288" cy="928" r="2.4"/>
    <circle cx="352" cy="928" r="2.4"/>
    <circle cx="416" cy="928" r="2.4"/>
    <circle cx="480" cy="928" r="2.4"/>
    <circle cx="544" cy="928" r="2.4"/>
    <circle cx="608" cy="928" r="2.4"/>
    <circle cx="672" cy="928" r="2.4"/>
    <circle cx="736" cy="928" r="2.4"/>
    <circle cx="800" cy="928" r="2.4"/>
    <circle cx="864" cy="928" r="2.4"/>
    <circle cx="928" cy="928" r="2.4"/>
    <circle cx="992" cy="928" r="2.4"/>
    <circle cx="1056" cy="928" r="2.4"/>
    <circle cx="1120" cy="928" r="2.4"/>
    <circle cx="1184" cy="928" r="2.4"/>
    <circle cx="1248" cy="928" r="2.4"/>
    <circle cx="1312" cy="928" r="2.4"/>
    <circle cx="1376" cy="928" r="2.4"/>
    <circle cx="1440" cy="928" r="2.4"/>
    <circle cx="1504" cy="928" r="2.4"/>
    <circle cx="1568" cy="928" r="2.4"/>
    <circle cx="1632" cy="928" r="2.4"/>
    <circle cx="1696" cy="928" r="2.4"/>
    <circle cx="1760" cy="928" r="2.4"/>
    <circle cx="1824" cy="928" r="2.4"/>
    <circle cx="32" cy="992" r="2.4"/>
    <circle cx="96" cy="992" r="2.4"/>
    <circle cx="160" cy="992" r="2.4"/>
    <circle cx="224" cy="992" r="2.4"/>
    <circle cx="288" cy="992" r="2.4"/>
    <circle cx="352" cy="992" r="2.4"/>
    <circle cx="416" cy="992" r="2.4"/>
    <circle cx="480" cy="992" r="2.4"/>
    <circle cx="544" cy="992" r="2.4"/>
    <circle cx="608" cy="992" r="2.4"/>
    <circle cx="672" cy="992" r="2.4"/>
    <circle cx="736" cy="992" r="2.4"/>
    <circle cx="800" cy="992" r="2.4"/>
    <circle cx="864" cy="992" r="2.4"/>
    <circle cx="928" cy="992" r="2.4"/>
    <circle cx="992" cy="992" r="2.4"/>
    <circle cx="1056" cy="992" r="2.4"/>
    <circle cx="1120" cy="992" r="2.4"/>
    <circle cx="1184" cy="992" r="2.4"/>
    <circle cx="1248" cy="992" r="2.4"/>
    <circle cx="1312" cy="992" r="2.4"/>
    <circle cx="1376" cy="992" r="2.4"/>
    <circle cx="1440" cy="992" r="2.4"/>
    <circle cx="1504" cy="992" r="2.4"/>
    <circle cx="1568" cy="992" r="2.4"/>
    <circle cx="1632" cy="992" r="2.4"/>
    <circle cx="1696" cy="992" r="2.4"/>
    <circle cx="1760" cy="992" r="2.4"/>
    <circle cx="1824" cy="992" r="2.4"/>
    <circle cx="32" cy="1056" r="2.4"/>
    <circle cx="96" cy="1056" r="2.4"/>
    <circle cx="160" cy="1056" r="2.4"/>
    <circle cx="224" cy="1056" r="2.4"/>
    <circle cx="288" cy="1056" r="2.4"/>
    <circle cx="352" cy="1056" r="2.4"/>
    <circle cx="416" cy="1056" r="2.4"/>
    <circle cx="480" cy="1056" r="2.4"/>
    <circle cx="544" cy="1056" r="2.4"/>
    <circle cx="608" cy="1056" r="2.4"/>
    <circle cx="672" cy="1056" r="2.4"/>
    <circle cx="736" cy="1056" r="2.4"/>
    <circle cx="800" cy="1056" r="2.4"/>
    <circle cx="864" cy="1056" r="2.4"/>
    <circle cx="928" cy="1056" r="2.4"/>
    <circle cx="992" cy="1056" r="2.4"/>
    <circle cx="1056" cy="1056" r="2.4"/>
    <circle cx="1120" cy="1056" r="2.4"/>
    <circle cx="1184" cy="1056" r="2.4"/>
    <circle cx="1248" cy="1056" r="2.4"/>
    <circle cx="1312" cy="1056" r="2.4"/>
    <circle cx="1376" cy="1056" r="2.4"/>
    <circle cx="1440" cy="1056" r="2.4"/>
    <circle cx="1504" cy="1056" r="2.4"/>
    <circle cx="1568" cy="1056" r="2.4"/>
    <circle cx="1632" cy="1056" r="2.4"/>
    <circle cx="1696" cy="1056" r="2.4"/>
    <circle cx="1760" cy="1056" r="2.4"/>
    <circle cx="1824" cy="1056" r="2.4"/>
    <circle cx="32" cy="1120" r="2.4"/>
    <circle cx="96" cy="1120" r="2.4"/>
    <circle cx="160" cy="1120" r="2.4"/>
    <circle cx="224" cy="1120" r="2.4"/>
    <circle cx="288" cy="1120" r="2.4"/>
    <circle cx="352" cy="1120" r="2.4"/>
    <circle cx="416" cy="1120" r="2.4"/>
    <circle cx="480" cy="1120" r="2.4"/>
    <circle cx="544" cy="1120" r="2.4"/>
    <circle cx="608" cy="1120" r="2.4"/>
    <circle cx="672" cy="1120" r="2.4"/>
    <circle cx="736" cy="1120" r="2.4"/>
    <circle cx="800" cy="1120" r="2.4"/>
    <circle cx="864" cy="1120" r="2.4"/>
    <circle cx="928" cy="1120" r="2.4"/>
    <circle cx="992" cy="1120" r="2.4"/>
    <circle cx="1056" cy="1120" r="2.4"/>
    <circle cx="1120" cy="1120" r="2.4"/>
    <circle cx="1184" cy="1120" r="2.4"/>
    <circle cx="1248" cy="1120" r="2.4"/>
    <circle cx="1312" cy="1120" r="2.4"/>
    <circle cx="1376" cy="1120" r="2.4"/>
    <circle cx="1440" cy="1120" r="2.4"/>
    <circle cx="1504" cy="1120" r="2.4"/>
    <circle cx="1568" cy="1120" r="2.4"/>
    <circle cx="1632" cy="1120" r="2.4"/>
    <circle cx="1696" cy="1120" r="2.4"/>
    <circle cx="1760" cy="1120" r="2.4"/>
    <circle cx="1824" cy="1120" r="2.4"/>
    <circle cx="32" cy="1184" r="2.4"/>
    <circle cx="96" cy="1184" r="2.4"/>
    <circle cx="160" cy="1184" r="2.4"/>
    <circle cx="224" cy="1184" r="2.4"/>
    <circle cx="288" cy="1184" r="2.4"/>
    <circle cx="352" cy="1184" r="2.4"/>
    <circle cx="416" cy="1184" r="2.4"/>
    <circle cx="480" cy="1184" r="2.4"/>
    <circle cx="544" cy="1184" r="2.4"/>
    <circle cx="608" cy="1184" r="2.4"/>
    <circle cx="672" cy="1184" r="2.4"/>
    <circle cx="736" cy="1184" r="2.4"/>
    <circle cx="800" cy="1184" r="2.4"/>
    <circle cx="864" cy="1184" r="2.4"/>
    <circle cx="928" cy="1184" r="2.4"/>
    <circle cx="992" cy="1184" r="2.4"/>
    <circle cx="1056" cy="1184" r="2.4"/>
    <circle cx="1120" cy="1184" r="2.4"/>
    <circle cx="1184" cy="1184" r="2.4"/>
    <circle cx="1248" cy="1184" r="2.4"/>
    <circle cx="1312" cy="1184" r="2.4"/>
    <circle cx="1376" cy="1184" r="2.4"/>
    <circle cx="1440" cy="1184" r="2.4"/>
    <circle cx="1504" cy="1184" r="2.4"/>
    <circle cx="1568" cy="1184" r="2.4"/>
    <circle cx="1632" cy="1184" r="2.4"/>
    <circle cx="1696" cy="1184" r="2.4"/>
    <circle cx="1760" cy="1184" r="2.4"/>
    <circle cx="1824" cy="1184" r="2.4"/>
    <circle cx="32" cy="1248" r="2.4"/>
    <circle cx="96" cy="1248" r="2.4"/>
    <circle cx="160" cy="1248" r="2.4"/>
    <circle cx="224" cy="1248" r="2.4"/>
    <circle cx="288" cy="1248" r="2.4"/>
    <circle cx="352" cy="1248" r="2.4"/>
    <circle cx="416" cy="1248" r="2.4"/>
    <circle cx="480" cy="1248" r="2.4"/>
    <circle cx="544" cy="1248" r="2.4"/>
    <circle cx="608" cy="1248" r="2.4"/>
    <circle cx="672" cy="1248" r="2.4"/>
    <circle cx="736" cy="1248" r="2.4"/>
    <circle cx="800" cy="1248" r="2.4"/>
    <circle cx="864" cy="1248" r="2.4"/>
    <circle cx="928" cy="1248" r="2.4"/>
    <circle cx="992" cy="1248" r="2.4"/>
    <circle cx="1056" cy="1248" r="2.4"/>
    <circle cx="1120" cy="1248" r="2.4"/>
    <circle cx="1184" cy="1248" r="2.4"/>
    <circle cx="1248" cy="1248" r="2.4"/>
    <circle cx="1312" cy="1248" r="2.4"/>
    <circle cx="1376" cy="1248" r="2.4"/>
    <circle cx="1440" cy="1248" r="2.4"/>
    <circle cx="1504" cy="1248" r="2.4"/>
    <circle cx="1568" cy="1248" r="2.4"/>
    <circle cx="1632" cy="1248" r="2.4"/>
    <circle cx="1696" cy="1248" r="2.4"/>
    <circle cx="1760" cy="1248" r="2.4"/>
    <circle cx="1824" cy="1248" r="2.4"/>
    <circle cx="32" cy="1312" r="2.4"/>
    <circle cx="96" cy="1312" r="2.4"/>
    <circle cx="160" cy="1312" r="2.4"/>
    <circle cx="224" cy="1312" r="2.4"/>
    <circle cx="288" cy="1312" r="2.4"/>
    <circle cx="352" cy="1312" r="2.4"/>
    <circle cx="416" cy="1312" r="2.4"/>
    <circle cx="480" cy="1312" r="2.4"/>
    <circle cx="544" cy="1312" r="2.4"/>
    <circle cx="608" cy="1312" r="2.4"/>
    <circle cx="672" cy="1312" r="2.4"/>
    <circle cx="736" cy="1312" r="2.4"/>
    <circle cx="800" cy="1312" r="2.4"/>
    <circle cx="864" cy="1312" r="2.4"/>
    <circle cx="928" cy="1312" r="2.4"/>
    <circle cx="992" cy="1312" r="2.4"/>
    <circle cx="1056" cy="1312" r="2.4"/>
    <circle cx="1120" cy="1312" r="2.4"/>
    <circle cx="1184" cy="1312" r="2.4"/>
    <circle cx="1248" cy="1312" r="2.4"/>
    <circle cx="1312" cy="1312" r="2.4"/>
    <circle cx="1376" cy="1312" r="2.4"/>
    <circle cx="1440" cy="1312" r="2.4"/>
    <circle cx="1504" cy="1312" r="2.4"/>
    <circle cx="1568" cy="1312" r="2.4"/>
    <circle cx="1632" cy="1312" r="2.4"/>
    <circle cx="1696" cy="1312" r="2.4"/>
    <circle cx="1760" cy="1312" r="2.4"/>
    <circle cx="1824" cy="1312" r="2.4"/>
    <circle cx="32" cy="1376" r="2.4"/>
    <circle cx="96" cy="1376" r="2.4"/>
    <circle cx="160" cy="1376" r="2.4"/>
    <circle cx="224" cy="1376" r="2.4"/>
    <circle cx="288" cy="1376" r="2.4"/>
    <circle cx="352" cy="1376" r="2.4"/>
    <circle cx="416" cy="1376" r="2.4"/>
    <circle cx="480" cy="1376" r="2.4"/>
    <circle cx="544" cy="1376" r="2.4"/>
    <circle cx="608" cy="1376" r="2.4"/>
    <circle cx="672" cy="1376" r="2.4"/>
    <circle cx="736" cy="1376" r="2.4"/>
    <circle cx="800" cy="1376" r="2.4"/>
    <circle cx="864" cy="1376" r="2.4"/>
    <circle cx="928" cy="1376" r="2.4"/>
    <circle cx="992" cy="1376" r="2.4"/>
    <circle cx="1056" cy="1376" r="2.4"/>
    <circle cx="1120" cy="1376" r="2.4"/>
    <circle cx="1184" cy="1376" r="2.4"/>
    <circle cx="1248" cy="1376" r="2.4"/>
    <circle cx="1312" cy="1376" r="2.4"/>
    <circle cx="1376" cy="1376" r="2.4"/>
    <circle cx="1440" cy="1376" r="2.4"/>
    <circle cx="1504" cy="1376" r="2.4"/>
    <circle cx="1568" cy="1376" r="2.4"/>
    <circle cx="1632" cy="1376" r="2.4"/>
    <circle cx="1696" cy="1376" r="2.4"/>
    <circle cx="1760" cy="1376" r="2.4"/>
    <circle cx="1824" cy="1376" r="2.4"/>
    <circle cx="32" cy="1440" r="2.4"/>
    <circle cx="96" cy="1440" r="2.4"/>
    <circle cx="160" cy="1440" r="2.4"/>
    <circle cx="224" cy="1440" r="2.4"/>
    <circle cx="288" cy="1440" r="2.4"/>
    <circle cx="352" cy="1440" r="2.4"/>
    <circle cx="416" cy="1440" r="2.4"/>
    <circle cx="480" cy="1440" r="2.4"/>
    <circle cx="544" cy="1440" r="2.4"/>
    <circle cx="608" cy="1440" r="2.4"/>
    <circle cx="672" cy="1440" r="2.4"/>
    <circle cx="736" cy="1440" r="2.4"/>
    <circle cx="800" cy="1440" r="2.4"/>
    <circle cx="864" cy="1440" r="2.4"/>
    <circle cx="928" cy="1440" r="2.4"/>
    <circle cx="992" cy="1440" r="2.4"/>
    <circle cx="1056" cy="1440" r="2.4"/>
    <circle cx="1120" cy="1440" r="2.4"/>
    <circle cx="1184" cy="1440" r="2.4"/>
    <circle cx="1248" cy="1440" r="2.4"/>
    <circle cx="1312" cy="1440" r="2.4"/>
    <circle cx="1376" cy="1440" r="2.4"/>
    <circle cx="1440" cy="1440" r="2.4"/>
    <circle cx="1504" cy="1440" r="2.4"/>
    <circle cx="1568" cy="1440" r="2.4"/>
    <circle cx="1632" cy="1440" r="2.4"/>
    <circle cx="1696" cy="1440" r="2.4"/>
    <circle cx="1760" cy="1440" r="2.4"/>
    <circle cx="1824" cy="1440" r="2.4"/>
    <circle cx="32" cy="1504" r="2.4"/>
    <circle cx="96" cy="1504" r="2.4"/>
    <circle cx="160" cy="1504" r="2.4"/>
    <circle cx="224" cy="1504" r="2.4"/>
    <circle cx="288" cy="1504" r="2.4"/>
    <circle cx="352" cy="1504" r="2.4"/>
    <circle cx="416" cy="1504" r="2.4"/>
    <circle cx="480" cy="1504" r="2.4"/>
    <circle cx="544" cy="1504" r="2.4"/>
    <circle cx="608" cy="1504" r="2.4"/>
    <circle cx="672" cy="1504" r="2.4"/>
    <circle cx="736" cy="1504" r="2.4"/>
    <circle cx="800" cy="1504" r="2.4"/>
    <circle cx="864" cy="1504" r="2.4"/>
    <circle cx="928" cy="1504" r="2.4"/>
    <circle cx="992" cy="1504" r="2.4"/>
    <circle cx="1056" cy="1504" r="2.4"/>
    <circle cx="1120" cy="1504" r="2.4"/>
    <circle cx="1184" cy="1504" r="2.4"/>
    <circle cx="1248" cy="1504" r="2.4"/>
    <circle cx="1312" cy="1504" r="2.4"/>
    <circle cx="1376" cy="1504" r="2.4"/>
    <circle cx="1440" cy="1504" r="2.4"/>
    <circle cx="1504" cy="1504" r="2.4"/>
    <circle cx="1568" cy="1504" r="2.4"/>
    <circle cx="1632" cy="1504" r="2.4"/>
    <circle cx="1696" cy="1504" r="2.4"/>
    <circle cx="1760" cy="1504" r="2.4"/>
    <circle cx="1824" cy="1504" r="2.4"/>
    <circle cx="32" cy="1568" r="2.4"/>
    <circle cx="96" cy="1568" r="2.4"/>
    <circle cx="160" cy="1568" r="2.4"/>
    <circle cx="224" cy="1568" r="2.4"/>
    <circle cx="288" cy="1568" r="2.4"/>
    <circle cx="352" cy="1568" r="2.4"/>
    <circle cx="416" cy="1568" r="2.4"/>
    <circle cx="480" cy="1568" r="2.4"/>
    <circle cx="544" cy="1568" r="2.4"/>
    <circle cx="608" cy="1568" r="2.4"/>
    <circle cx="672" cy="1568" r="2.4"/>
    <circle cx="736" cy="1568" r="2.4"/>
    <circle cx="800" cy="1568" r="2.4"/>
    <circle cx="864" cy="1568" r="2.4"/>
    <circle cx="928" cy="1568" r="2.4"/>
    <circle cx="992" cy="1568" r="2.4"/>
    <circle cx="1056" cy="1568" r="2.4"/>
    <circle cx="1120" cy="1568" r="2.4"/>
    <circle cx="1184" cy="1568" r="2.4"/>
    <circle cx="1248" cy="1568" r="2.4"/>
    <circle cx="1312" cy="1568" r="2.4"/>
    <circle cx="1376" cy="1568" r="2.4"/>
    <circle cx="1440" cy="1568" r="2.4"/>
    <circle cx="1504" cy="1568" r="2.4"/>
    <circle cx="1568" cy="1568" r="2.4"/>
    <circle cx="1632" cy="1568" r="2.4"/>
    <circle cx="1696" cy="1568" r="2.4"/>
    <circle cx="1760" cy="1568" r="2.4"/>
    <circle cx="1824" cy="1568" r="2.4"/>
    <circle cx="32" cy="1632" r="2.4"/>
    <circle cx="96" cy="1632" r="2.4"/>
    <circle cx="160" cy="1632" r="2.4"/>
    <circle cx="224" cy="1632" r="2.4"/>
    <circle cx="288" cy="1632" r="2.4"/>
    <circle cx="352" cy="1632" r="2.4"/>
    <circle cx="416" cy="1632" r="2.4"/>
    <circle cx="480" cy="1632" r="2.4"/>
    <circle cx="544" cy="1632" r="2.4"/>
    <circle cx="608" cy="1632" r="2.4"/>
    <circle cx="672" cy="1632" r="2.4"/>
    <circle cx="736" cy="1632" r="2.4"/>
    <circle cx="800" cy="1632" r="2.4"/>
    <circle cx="864" cy="1632" r="2.4"/>
    <circle cx="928" cy="1632" r="2.4"/>
    <circle cx="992" cy="1632" r="2.4"/>
    <circle cx="1056" cy="1632" r="2.4"/>
    <circle cx="1120" cy="1632" r="2.4"/>
    <circle cx="1184" cy="1632" r="2.4"/>
    <circle cx="1248" cy="1632" r="2.4"/>
    <circle cx="1312" cy="1632" r="2.4"/>
    <circle cx="1376" cy="1632" r="2.4"/>
    <circle cx="1440" cy="1632" r="2.4"/>
    <circle cx="1504" cy="1632" r="2.4"/>
    <circle cx="1568" cy="1632" r="2.4"/>
    <circle cx="1632" cy="1632" r="2.4"/>
    <circle cx="1696" cy="1632" r="2.4"/>
    <circle cx="1760" cy="1632" r="2.4"/>
    <circle cx="1824" cy="1632" r="2.4"/>
    <circle cx="32" cy="1696" r="2.4"/>
    <circle cx="96" cy="1696" r="2.4"/>
    <circle cx="160" cy="1696" r="2.4"/>
    <circle cx="224" cy="1696" r="2.4"/>
    <circle cx="288" cy="1696" r="2.4"/>
    <circle cx="352" cy="1696" r="2.4"/>
    <circle cx="416" cy="1696" r="2.4"/>
    <circle cx="480" cy="1696" r="2.4"/>
    <circle cx="544" cy="1696" r="2.4"/>
    <circle cx="608" cy="1696" r="2.4"/>
    <circle cx="672" cy="1696" r="2.4"/>
    <circle cx="736" cy="1696" r="2.4"/>
    <circle cx="800" cy="1696" r="2.4"/>
    <circle cx="864" cy="1696" r="2.4"/>
    <circle cx="928" cy="1696" r="2.4"/>
    <circle cx="992" cy="1696" r="2.4"/>
    <circle cx="1056" cy="1696" r="2.4"/>
    <circle cx="1120" cy="1696" r="2.4"/>
    <circle cx="1184" cy="1696" r="2.4"/>
    <circle cx="1248" cy="1696" r="2.4"/>
    <circle cx="1312" cy="1696" r="2.4"/>
    <circle cx="1376" cy="1696" r="2.4"/>
    <circle cx="1440" cy="1696" r="2.4"/>
    <circle cx="1504" cy="1696" r="2.4"/>
    <circle cx="1568" cy="1696" r="2.4"/>
    <circle cx="1632" cy="1696" r="2.4"/>
    <circle cx="1696" cy="1696" r="2.4"/>
    <circle cx="1760" cy="1696" r="2.4"/>
    <circle cx="1824" cy="1696" r="2.4"/>
    <circle cx="32" cy="1760" r="2.4"/>
    <circle cx="96" cy="1760" r="2.4"/>
    <circle cx="160" cy="1760" r="2.4"/>
    <circle cx="224" cy="1760" r="2.4"/>
    <circle cx="288" cy="1760" r="2.4"/>
    <circle cx="352" cy="1760" r="2.4"/>
    <circle cx="416" cy="1760" r="2.4"/>
    <circle cx="480" cy="1760" r="2.4"/>
    <circle cx="544" cy="1760" r="2.4"/>
    <circle cx="608" cy="1760" r="2.4"/>
    <circle cx="672" cy="1760" r="2.4"/>
    <circle cx="736" cy="1760" r="2.4"/>
    <circle cx="800" cy="1760" r="2.4"/>
    <circle cx="864" cy="1760" r="2.4"/>
    <circle cx="928" cy="1760" r="2.4"/>
    <circle cx="992" cy="1760" r="2.4"/>
    <circle cx="1056" cy="1760" r="2.4"/>
    <circle cx="1120" cy="1760" r="2.4"/>
    <circle cx="1184" cy="1760" r="2.4"/>
    <circle cx="1248" cy="1760" r="2.4"/>
    <circle cx="1312" cy="1760" r="2.4"/>
    <circle cx="1376" cy="1760" r="2.4"/>
    <circle cx="1440" cy="1760" r="2.4"/>
    <circle cx="1504" cy="1760" r="2.4"/>
    <circle cx="1568" cy="1760" r="2.4"/>
    <circle cx="1632" cy="1760" r="2.4"/>
    <circle cx="1696" cy="1760" r="2.4"/>
    <circle cx="1760" cy="1760" r="2.4"/>
    <circle cx="1824" cy="1760" r="2.4"/>
    <circle cx="32" cy="1824" r="2.4"/>
    <circle cx="96" cy="1824" r="2.4"/>
    <circle cx="160" cy="1824" r="2.4"/>
    <circle cx="224" cy="1824" r="2.4"/>
    <circle cx="288" cy="1824" r="2.4"/>
    <circle cx="352" cy="1824" r="2.4"/>
    <circle cx="416" cy="1824" r="2.4"/>
    <circle cx="480" cy="1824" r="2.4"/>
    <circle cx="544" cy="1824" r="2.4"/>
    <circle cx="608" cy="1824" r="2.4"/>
    <circle cx="672" cy="1824" r="2.4"/>
    <circle cx="736" cy="1824" r="2.4"/>
    <circle cx="800" cy="1824" r="2.4"/>
    <circle cx="864" cy="1824" r="2.4"/>
    <circle cx="928" cy="1824" r="2.4"/>
    <circle cx="992" cy="1824" r="2.4"/>
    <circle cx="1056" cy="1824" r="2.4"/>
    <circle cx="1120" cy="1824" r="2.4"/>
    <circle cx="1184" cy="1824" r="2.4"/>
    <circle cx="1248" cy="1824" r="2.4"/>
    <circle cx="1312" cy="1824" r="2.4"/>
    <circle cx="1376" cy="1824" r="2.4"/>
    <circle cx="1440" cy="1824" r="2.4"/>
    <circle cx="1504" cy="1824" r="2.4"/>
    <circle cx="1568" cy="1824" r="2.4"/>
    <circle cx="1632" cy="1824" r="2.4"/>
    <circle cx="1696" cy="1824" r="2.4"/>
    <circle cx="1760" cy="1824" r="2.4"/>
    <circle cx="1824" cy="1824" r="2.4"/>
    <circle cx="32" cy="1888" r="2.4"/>
    <circle cx="96" cy="1888" r="2.4"/>
    <circle cx="160" cy="1888" r="2.4"/>
    <circle cx="224" cy="1888" r="2.4"/>
    <circle cx="288" cy="1888" r="2.4"/>
    <circle cx="352" cy="1888" r="2.4"/>
    <circle cx="416" cy="1888" r="2.4"/>
    <circle cx="480" cy="1888" r="2.4"/>
    <circle cx="544" cy="1888" r="2.4"/>
    <circle cx="608" cy="1888" r="2.4"/>
    <circle cx="672" cy="1888" r="2.4"/>
    <circle cx="736" cy="1888" r="2.4"/>
    <circle cx="800" cy="1888" r="2.4"/>
    <circle cx="864" cy="1888" r="2.4"/>
    <circle cx="928" cy="1888" r="2.4"/>
    <circle cx="992" cy="1888" r="2.4"/>
    <circle cx="1056" cy="1888" r="2.4"/>
    <circle cx="1120" cy="1888" r="2.4"/>
    <circle cx="1184" cy="1888" r="2.4"/>
    <circle cx="1248" cy="1888" r="2.4"/>
    <circle cx="1312" cy="1888" r="2.4"/>
    <circle cx="1376" cy="1888" r="2.4"/>
    <circle cx="1440" cy="1888" r="2.4"/>
    <circle cx="1504" cy="1888" r="2.4"/>
    <circle cx="1568" cy="1888" r="2.4"/>
    <circle cx="1632" cy="1888" r="2.4"/>
    <circle cx="1696" cy="1888" r="2.4"/>
    <circle cx="1760" cy="1888" r="2.4"/>
    <circle cx="1824" cy="1888" r="2.4"/>
    <circle cx="32" cy="1952" r="2.4"/>
    <circle cx="96" cy="1952" r="2.4"/>
    <circle cx="160" cy="1952" r="2.4"/>
    <circle cx="224" cy="1952" r="2.4"/>
    <circle cx="288" cy="1952" r="2.4"/>
    <circle cx="352" cy="1952" r="2.4"/>
    <circle cx="416" cy="1952" r="2.4"/>
    <circle cx="480" cy="1952" r="2.4"/>
    <circle cx="544" cy="1952" r="2.4"/>
    <circle cx="608" cy="1952" r="2.4"/>
    <circle cx="672" cy="1952" r="2.4"/>
    <circle cx="736" cy="1952" r="2.4"/>
    <circle cx="800" cy="1952" r="2.4"/>
    <circle cx="864" cy="1952" r="2.4"/>
    <circle cx="928" cy="1952" r="2.4"/>
    <circle cx="992" cy="1952" r="2.4"/>
    <circle cx="1056" cy="1952" r="2.4"/>
    <circle cx="1120" cy="1952" r="2.4"/>
    <circle cx="1184" cy="1952" r="2.4"/>
    <circle cx="1248" cy="1952" r="2.4"/>
    <circle cx="1312" cy="1952" r="2.4"/>
    <circle cx="1376" cy="1952" r="2.4"/>
    <circle cx="1440" cy="1952" r="2.4"/>
    <circle cx="1504" cy="1952" r="2.4"/>
    <circle cx="1568" cy="1952" r="2.4"/>
    <circle cx="1632" cy="1952" r="2.4"/>
    <circle cx="1696" cy="1952" r="2.4"/>
    <circle cx="1760" cy="1952" r="2.4"/>
    <circle cx="1824" cy="1952" r="2.4"/>
    <circle cx="32" cy="2016" r="2.4"/>
    <circle cx="96" cy="2016" r="2.4"/>
    <circle cx="160" cy="2016" r="2.4"/>
    <circle cx="224" cy="2016" r="2.4"/>
    <circle cx="288" cy="2016" r="2.4"/>
    <circle cx="352" cy="2016" r="2.4"/>
    <circle cx="416" cy="2016" r="2.4"/>
    <circle cx="480" cy="2016" r="2.4"/>
    <circle cx="544" cy="2016" r="2.4"/>
    <circle cx="608" cy="2016" r="2.4"/>
    <circle cx="672" cy="2016" r="2.4"/>
    <circle cx="736" cy="2016" r="2.4"/>
    <circle cx="800" cy="2016" r="2.4"/>
    <circle cx="864" cy="2016" r="2.4"/>
    <circle cx="928" cy="2016" r="2.4"/>
    <circle cx="992" cy="2016" r="2.4"/>
    <circle cx="1056" cy="2016" r="2.4"/>
    <circle cx="1120" cy="2016" r="2.4"/>
    <circle cx="1184" cy="2016" r="2.4"/>
    <circle cx="1248" cy="2016" r="2.4"/>
    <circle cx="1312" cy="2016" r="2.4"/>
    <circle cx="1376" cy="2016" r="2.4"/>
    <circle cx="1440" cy="2016" r="2.4"/>
    <circle cx="1504" cy="2016" r="2.4"/>
    <circle cx="1568" cy="2016" r="2.4"/>
    <circle cx="1632" cy="2016" r="2.4"/>
    <circle cx="1696" cy="2016" r="2.4"/>
    <circle cx="1760" cy="2016" r="2.4"/>
    <circle cx="1824" cy="2016" r="2.4"/>
    <circle cx="32" cy="2080" r="2.4"/>
    <circle cx="96" cy="2080" r="2.4"/>
    <circle cx="160" cy="2080" r="2.4"/>
    <circle cx="224" cy="2080" r="2.4"/>
    <circle cx="288" cy="2080" r="2.4"/>
    <circle cx="352" cy="2080" r="2.4"/>
    <circle cx="416" cy="2080" r="2.4"/>
    <circle cx="480" cy="2080" r="2.4"/>
    <circle cx="544" cy="2080" r="2.4"/>
    <circle cx="608" cy="2080" r="2.4"/>
    <circle cx="672" cy="2080" r="2.4"/>
    <circle cx="736" cy="2080" r="2.4"/>
    <circle cx="800" cy="2080" r="2.4"/>
    <circle cx="864" cy="2080" r="2.4"/>
    <circle cx="928" cy="2080" r="2.4"/>
    <circle cx="992" cy="2080" r="2.4"/>
    <circle cx="1056" cy="2080" r="2.4"/>
    <circle cx="1120" cy="2080" r="2.4"/>
    <circle cx="1184" cy="2080" r="2.4"/>
    <circle cx="1248" cy="2080" r="2.4"/>
    <circle cx="1312" cy="2080" r="2.4"/>
    <circle cx="1376" cy="2080" r="2.4"/>
    <circle cx="1440" cy="2080" r="2.4"/>
    <circle cx="1504" cy="2080" r="2.4"/>
    <circle cx="1568" cy="2080" r="2.4"/>
    <circle cx="1632" cy="2080" r="2.4"/>
    <circle cx="1696" cy="2080" r="2.4"/>
    <circle cx="1760" cy="2080" r="2.4"/>
    <circle cx="1824" cy="2080" r="2.4"/>
    <circle cx="32" cy="2144" r="2.4"/>
    <circle cx="96" cy="2144" r="2.4"/>
    <circle cx="160" cy="2144" r="2.4"/>
    <circle cx="224" cy="2144" r="2.4"/>
    <circle cx="288" cy="2144" r="2.4"/>
    <circle cx="352" cy="2144" r="2.4"/>
    <circle cx="416" cy="2144" r="2.4"/>
    <circle cx="480" cy="2144" r="2.4"/>
    <circle cx="544" cy="2144" r="2.4"/>
    <circle cx="608" cy="2144" r="2.4"/>
    <circle cx="672" cy="2144" r="2.4"/>
    <circle cx="736" cy="2144" r="2.4"/>
    <circle cx="800" cy="2144" r="2.4"/>
    <circle cx="864" cy="2144" r="2.4"/>
    <circle cx="928" cy="2144" r="2.4"/>
    <circle cx="992" cy="2144" r="2.4"/>
    <circle cx="1056" cy="2144" r="2.4"/>
    <circle cx="1120" cy="2144" r="2.4"/>
    <circle cx="1184" cy="2144" r="2.4"/>
    <circle cx="1248" cy="2144" r="2.4"/>
    <circle cx="1312" cy="2144" r="2.4"/>
    <circle cx="1376" cy="2144" r="2.4"/>
    <circle cx="1440" cy="2144" r="2.4"/>
    <circle cx="1504" cy="2144" r="2.4"/>
    <circle cx="1568" cy="2144" r="2.4"/>
    <circle cx="1632" cy="2144" r="2.4"/>
    <circle cx="1696" cy="2144" r="2.4"/>
    <circle cx="1760" cy="2144" r="2.4"/>
    <circle cx="1824" cy="2144" r="2.4"/>
    <circle cx="32" cy="2208" r="2.4"/>
    <circle cx="96" cy="2208" r="2.4"/>
    <circle cx="160" cy="2208" r="2.4"/>
    <circle cx="224" cy="2208" r="2.4"/>
    <circle cx="288" cy="2208" r="2.4"/>
    <circle cx="352" cy="2208" r="2.4"/>
    <circle cx="416" cy="2208" r="2.4"/>
    <circle cx="480" cy="2208" r="2.4"/>
    <circle cx="544" cy="2208" r="2.4"/>
    <circle cx="608" cy="2208" r="2.4"/>
    <circle cx="672" cy="2208" r="2.4"/>
    <circle cx="736" cy="2208" r="2.4"/>
    <circle cx="800" cy="2208" r="2.4"/>
    <circle cx="864" cy="2208" r="2.4"/>
    <circle cx="928" cy="2208" r="2.4"/>
    <circle cx="992" cy="2208" r="2.4"/>
    <circle cx="1056" cy="2208" r="2.4"/>
    <circle cx="1120" cy="2208" r="2.4"/>
    <circle cx="1184" cy="2208" r="2.4"/>
    <circle cx="1248" cy="2208" r="2.4"/>
    <circle cx="1312" cy="2208" r="2.4"/>
    <circle cx="1376" cy="2208" r="2.4"/>
    <circle cx="1440" cy="2208" r="2.4"/>
    <circle cx="1504" cy="2208" r="2.4"/>
    <circle cx="1568" cy="2208" r="2.4"/>
    <circle cx="1632" cy="2208" r="2.4"/>
    <circle cx="1696" cy="2208" r="2.4"/>
    <circle cx="1760" cy="2208" r="2.4"/>
    <circle cx="1824" cy="2208" r="2.4"/>
    <circle cx="32" cy="2272" r="2.4"/>
    <circle cx="96" cy="2272" r="2.4"/>
    <circle cx="160" cy="2272" r="2.4"/>
    <circle cx="224" cy="2272" r="2.4"/>
    <circle cx="288" cy="2272" r="2.4"/>
    <circle cx="352" cy="2272" r="2.4"/>
    <circle cx="416" cy="2272" r="2.4"/>
    <circle cx="480" cy="2272" r="2.4"/>
    <circle cx="544" cy="2272" r="2.4"/>
    <circle cx="608" cy="2272" r="2.4"/>
    <circle cx="672" cy="2272" r="2.4"/>
    <circle cx="736" cy="2272" r="2.4"/>
    <circle cx="800" cy="2272" r="2.4"/>
    <circle cx="864" cy="2272" r="2.4"/>
    <circle cx="928" cy="2272" r="2.4"/>
    <circle cx="992" cy="2272" r="2.4"/>
    <circle cx="1056" cy="2272" r="2.4"/>
    <circle cx="1120" cy="2272" r="2.4"/>
    <circle cx="1184" cy="2272" r="2.4"/>
    <circle cx="1248" cy="2272" r="2.4"/>
    <circle cx="1312" cy="2272" r="2.4"/>
    <circle cx="1376" cy="2272" r="2.4"/>
    <circle cx="1440" cy="2272" r="2.4"/>
    <circle cx="1504" cy="2272" r="2.4"/>
    <circle cx="1568" cy="2272" r="2.4"/>
    <circle cx="1632" cy="2272" r="2.4"/>
    <circle cx="1696" cy="2272" r="2.4"/>
    <circle cx="1760" cy="2272" r="2.4"/>
    <circle cx="1824" cy="2272" r="2.4"/>
    <circle cx="32" cy="2336" r="2.4"/>
    <circle cx="96" cy="2336" r="2.4"/>
    <circle cx="160" cy="2336" r="2.4"/>
    <circle cx="224" cy="2336" r="2.4"/>
    <circle cx="288" cy="2336" r="2.4"/>
    <circle cx="352" cy="2336" r="2.4"/>
    <circle cx="416" cy="2336" r="2.4"/>
    <circle cx="480" cy="2336" r="2.4"/>
    <circle cx="544" cy="2336" r="2.4"/>
    <circle cx="608" cy="2336" r="2.4"/>
    <circle cx="672" cy="2336" r="2.4"/>
    <circle cx="736" cy="2336" r="2.4"/>
    <circle cx="800" cy="2336" r="2.4"/>
    <circle cx="864" cy="2336" r="2.4"/>
    <circle cx="928" cy="2336" r="2.4"/>
    <circle cx="992" cy="2336" r="2.4"/>
    <circle cx="1056" cy="2336" r="2.4"/>
    <circle cx="1120" cy="2336" r="2.4"/>
    <circle cx="1184" cy="2336" r="2.4"/>
    <circle cx="1248" cy="2336" r="2.4"/>
    <circle cx="1312" cy="2336" r="2.4"/>
    <circle cx="1376" cy="2336" r="2.4"/>
    <circle cx="1440" cy="2336" r="2.4"/>
    <circle cx="1504" cy="2336" r="2.4"/>
    <circle cx="1568" cy="2336" r="2.4"/>
    <circle cx="1632" cy="2336" r="2.4"/>
    <circle cx="1696" cy="2336" r="2.4"/>
    <circle cx="1760" cy="2336" r="2.4"/>
    <circle cx="1824" cy="2336" r="2.4"/>
    <circle cx="32" cy="2400" r="2.4"/>
    <circle cx="96" cy="2400" r="2.4"/>
    <circle cx="160" cy="2400" r="2.4"/>
    <circle cx="224" cy="2400" r="2.4"/>
    <circle cx="288" cy="2400" r="2.4"/>
    <circle cx="352" cy="2400" r="2.4"/>
    <circle cx="416" cy="2400" r="2.4"/>
    <circle cx="480" cy="2400" r="2.4"/>
    <circle cx="544" cy="2400" r="2.4"/>
    <circle cx="608" cy="2400" r="2.4"/>
    <circle cx="672" cy="2400" r="2.4"/>
    <circle cx="736" cy="2400" r="2.4"/>
    <circle cx="800" cy="2400" r="2.4"/>
    <circle cx="864" cy="2400" r="2.4"/>
    <circle cx="928" cy="2400" r="2.4"/>
    <circle cx="992" cy="2400" r="2.4"/>
    <circle cx="1056" cy="2400" r="2.4"/>
    <circle cx="1120" cy="2400" r="2.4"/>
    <circle cx="1184" cy="2400" r="2.4"/>
    <circle cx="1248" cy="2400" r="2.4"/>
    <circle cx="1312" cy="2400" r="2.4"/>
    <circle cx="1376" cy="2400" r="2.4"/>
    <circle cx="1440" cy="2400" r="2.4"/>
    <circle cx="1504" cy="2400" r="2.4"/>
    <circle cx="1568" cy="2400" r="2.4"/>
    <circle cx="1632" cy="2400" r="2.4"/>
    <circle cx="1696" cy="2400" r="2.4"/>
    <circle cx="1760" cy="2400" r="2.4"/>
    <circle cx="1824" cy="2400" r="2.4"/>
  </g>
</svg>
